<svg xmlns="http://www.w3.org/2000/svg" viewBox="0 0 300 72" fill="none" role="img" aria-label="autodoc.ru">
  <!-- stylized red gear -->
  <g transform="translate(8 10)">
    <circle cx="26" cy="26" r="18" fill="#C8102E"/>
    <circle cx="26" cy="26" r="7" fill="#fff"/>
    <g fill="#C8102E">
      <rect x="22" y="0" width="8" height="8" rx="1"/>
      <rect x="22" y="44" width="8" height="8" rx="1"/>
      <rect x="0" y="22" width="8" height="8" rx="1"/>
      <rect x="44" y="22" width="8" height="8" rx="1"/>
      <rect x="6" y="6" width="7" height="7" rx="1" transform="rotate(-20 9.5 9.5)"/>
      <rect x="39" y="6" width="7" height="7" rx="1" transform="rotate(20 42.5 9.5)"/>
      <rect x="6" y="39" width="7" height="7" rx="1" transform="rotate(20 9.5 42.5)"/>
      <rect x="39" y="39" width="7" height="7" rx="1" transform="rotate(-20 42.5 42.5)"/>
    </g>
    <rect x="22" y="18" width="8" height="16" fill="#C8102E"/>
    <rect x="18" y="22" width="16" height="8" fill="#C8102E"/>
  </g>
  <text x="70" y="34" fill="#111827" font-family="Arial, Helvetica, sans-serif" font-size="24" font-weight="800">autodoc</text>
  <text x="168" y="34" fill="#C8102E" font-family="Arial, Helvetica, sans-serif" font-size="24" font-weight="800">.ru</text>
  <text x="70" y="54" fill="#111827" font-family="Arial, Helvetica, sans-serif" font-size="12" font-weight="700" letter-spacing="0.18em">АВТОЗАПЧАСТИ</text>
</svg>
